G04 Layer_Color=16711935*
%FSAX24Y24*%
%MOIN*%
G70*
G01*
G75*
%ADD39C,0.0779*%
%ADD40R,0.0779X0.0779*%
%ADD41C,0.0551*%
%ADD42C,0.0591*%
%ADD43C,0.0379*%
D39*
X040000Y043000D02*
D03*
X040000Y044000D02*
D03*
X040000Y042000D02*
D03*
X058950Y040950D02*
D03*
X058950Y041950D02*
D03*
X058950Y042950D02*
D03*
X058950Y044950D02*
D03*
X058950Y043950D02*
D03*
D40*
X040000Y045000D02*
D03*
X058950Y045950D02*
D03*
D41*
X047000Y040500D02*
D03*
X048000D02*
D03*
X049000D02*
D03*
X050000D02*
D03*
X051000Y046500D02*
D03*
X050000D02*
D03*
X049000D02*
D03*
X048000D02*
D03*
X047000D02*
D03*
X052000D02*
D03*
X051000Y040500D02*
D03*
X052000D02*
D03*
X059000Y040000D02*
D03*
X040000Y047000D02*
D03*
Y040000D02*
D03*
X059000Y047000D02*
D03*
D42*
X044000D02*
D03*
Y046250D02*
D03*
D43*
X047249Y042499D02*
D03*
X047250Y043250D02*
D03*
X046525Y042874D02*
D03*
X046500Y042125D02*
D03*
X045500Y041500D02*
D03*
X048250Y044000D02*
D03*
X051500Y042750D02*
D03*
X050000D02*
D03*
X050818Y044250D02*
D03*
X045000Y041000D02*
D03*
X054475Y042025D02*
D03*
X053450Y041500D02*
D03*
X052050D02*
D03*
X052750D02*
D03*
X047250Y041740D02*
D03*
X049500Y044000D02*
D03*
X042719Y040000D02*
D03*
X042500Y041500D02*
D03*
X041165Y042000D02*
D03*
X042654Y040750D02*
D03*
X041835Y046500D02*
D03*
X042805Y046225D02*
D03*
X054000Y046500D02*
D03*
X041000Y045449D02*
D03*
X040250Y046000D02*
D03*
X041000Y044750D02*
D03*
X041750D02*
D03*
X045500Y045750D02*
D03*
X054700Y044781D02*
D03*
X055500D02*
D03*
X057500Y041500D02*
D03*
X056500D02*
D03*
X055750Y042370D02*
D03*
X049500Y040000D02*
D03*
M02*
