G04 Layer_Physical_Order=1*
G04 Layer_Color=255*
%FSAX24Y24*%
%MOIN*%
G70*
G01*
G75*
%ADD10R,0.0768X0.0492*%
%ADD11R,0.0472X0.0236*%
%ADD12R,0.0472X0.0551*%
%ADD13R,0.0551X0.0472*%
%ADD14R,0.0512X0.0591*%
G04:AMPARAMS|DCode=15|XSize=21.7mil|YSize=65mil|CornerRadius=0mil|HoleSize=0mil|Usage=FLASHONLY|Rotation=225.000|XOffset=0mil|YOffset=0mil|HoleType=Round|Shape=Round|*
%AMOVALD15*
21,1,0.0433,0.0217,0.0000,0.0000,315.0*
1,1,0.0217,-0.0153,0.0153*
1,1,0.0217,0.0153,-0.0153*
%
%ADD15OVALD15*%

G04:AMPARAMS|DCode=16|XSize=21.7mil|YSize=65mil|CornerRadius=0mil|HoleSize=0mil|Usage=FLASHONLY|Rotation=315.000|XOffset=0mil|YOffset=0mil|HoleType=Round|Shape=Round|*
%AMOVALD16*
21,1,0.0433,0.0217,0.0000,0.0000,45.0*
1,1,0.0217,-0.0153,-0.0153*
1,1,0.0217,0.0153,0.0153*
%
%ADD16OVALD16*%

%ADD17R,0.0600X0.0400*%
%ADD18C,0.0118*%
%ADD19C,0.0700*%
%ADD20R,0.0700X0.0700*%
%ADD21C,0.0472*%
%ADD22C,0.0512*%
%ADD23C,0.0300*%
G36*
X058944Y047350D02*
X058907Y047345D01*
X058821Y047310D01*
X058747Y047253D01*
X058690Y047179D01*
X058655Y047092D01*
X058650Y047059D01*
X059000D01*
Y047000D01*
X059059D01*
Y046650D01*
X059092Y046655D01*
X059179Y046690D01*
X059253Y046747D01*
X059310Y046821D01*
X059345Y046908D01*
X059350Y046944D01*
X059400Y046941D01*
Y046420D01*
X059379Y046379D01*
X059350Y046379D01*
X058521D01*
Y045734D01*
X057083Y044295D01*
X057069Y044275D01*
X056745Y044275D01*
X056720Y044314D01*
X056694D01*
X056694Y044314D01*
X056277D01*
Y043950D01*
Y043586D01*
X056694D01*
X056694Y043586D01*
X056720Y043586D01*
X056745Y043625D01*
X056770Y043625D01*
X057645D01*
Y044275D01*
X057525D01*
X057506Y044321D01*
X058706Y045521D01*
X059350D01*
X059379Y045521D01*
X059400Y045480D01*
Y045211D01*
X059350Y045198D01*
X059284Y045284D01*
X059186Y045359D01*
X059072Y045406D01*
X059009Y045414D01*
Y044950D01*
Y044486D01*
X059072Y044494D01*
X059186Y044541D01*
X059284Y044616D01*
X059350Y044702D01*
X059400Y044689D01*
Y044115D01*
X059350Y044105D01*
X059324Y044166D01*
X059256Y044256D01*
X059166Y044324D01*
X059062Y044368D01*
X058950Y044382D01*
X058838Y044368D01*
X058734Y044324D01*
X058644Y044256D01*
X058575Y044166D01*
X058532Y044062D01*
X058518Y043950D01*
X058532Y043838D01*
X058564Y043762D01*
X056529Y041727D01*
X056500Y041733D01*
X056411Y041715D01*
X056335Y041665D01*
X056285Y041589D01*
X056267Y041500D01*
X056285Y041411D01*
X056335Y041335D01*
X056411Y041285D01*
X056500Y041267D01*
X056589Y041285D01*
X056665Y041335D01*
X056715Y041411D01*
X056733Y041500D01*
X056727Y041529D01*
X058762Y043564D01*
X058838Y043532D01*
X058950Y043518D01*
X059062Y043532D01*
X059166Y043575D01*
X059256Y043644D01*
X059324Y043734D01*
X059350Y043795D01*
X059400Y043785D01*
Y043115D01*
X059350Y043105D01*
X059324Y043166D01*
X059256Y043256D01*
X059166Y043324D01*
X059062Y043368D01*
X058950Y043382D01*
X058838Y043368D01*
X058734Y043324D01*
X058644Y043256D01*
X058576Y043166D01*
X058532Y043062D01*
X058518Y042950D01*
X058532Y042838D01*
X058564Y042762D01*
X057529Y041727D01*
X057500Y041733D01*
X057411Y041715D01*
X057335Y041665D01*
X057285Y041589D01*
X057267Y041500D01*
X057285Y041411D01*
X057335Y041335D01*
X057411Y041285D01*
X057500Y041267D01*
X057589Y041285D01*
X057665Y041335D01*
X057715Y041411D01*
X057733Y041500D01*
X057727Y041529D01*
X058762Y042564D01*
X058838Y042532D01*
X058950Y042518D01*
X059062Y042532D01*
X059166Y042575D01*
X059256Y042644D01*
X059324Y042734D01*
X059350Y042795D01*
X059400Y042785D01*
Y042115D01*
X059350Y042105D01*
X059325Y042166D01*
X059256Y042256D01*
X059166Y042325D01*
X059062Y042368D01*
X058950Y042382D01*
X058838Y042368D01*
X058734Y042325D01*
X058644Y042256D01*
X058576Y042166D01*
X058532Y042062D01*
X058518Y041950D01*
X058532Y041838D01*
X058576Y041734D01*
X058644Y041644D01*
X058734Y041575D01*
X058838Y041532D01*
X058950Y041518D01*
X059062Y041532D01*
X059166Y041575D01*
X059256Y041644D01*
X059325Y041734D01*
X059350Y041795D01*
X059400Y041785D01*
Y041115D01*
X059350Y041105D01*
X059325Y041166D01*
X059256Y041256D01*
X059166Y041325D01*
X059062Y041368D01*
X058950Y041382D01*
X058838Y041368D01*
X058734Y041325D01*
X058644Y041256D01*
X058576Y041166D01*
X058532Y041062D01*
X058518Y040950D01*
X058532Y040838D01*
X058576Y040734D01*
X058644Y040644D01*
X058734Y040575D01*
X058838Y040532D01*
X058950Y040518D01*
X059062Y040532D01*
X059166Y040575D01*
X059256Y040644D01*
X059325Y040734D01*
X059350Y040795D01*
X059400Y040785D01*
Y040059D01*
X059350Y040056D01*
X059345Y040093D01*
X059310Y040179D01*
X059253Y040253D01*
X059179Y040310D01*
X059092Y040345D01*
X059059Y040350D01*
Y040000D01*
X059000D01*
Y039941D01*
X058650D01*
X058655Y039908D01*
X058690Y039821D01*
X058747Y039747D01*
X058821Y039690D01*
X058907Y039655D01*
X058944Y039650D01*
X058941Y039600D01*
X040059D01*
X040056Y039650D01*
X040093Y039655D01*
X040179Y039690D01*
X040253Y039747D01*
X040310Y039821D01*
X040345Y039908D01*
X040350Y039941D01*
X040000D01*
Y040000D01*
X039941D01*
Y040350D01*
X039908Y040345D01*
X039821Y040310D01*
X039747Y040253D01*
X039690Y040179D01*
X039655Y040093D01*
X039650Y040056D01*
X039600Y040059D01*
Y041735D01*
X039650Y041752D01*
X039694Y041694D01*
X039784Y041625D01*
X039860Y041594D01*
Y040750D01*
X039870Y040696D01*
X039901Y040651D01*
X040194Y040357D01*
X040166Y040315D01*
X040093Y040345D01*
X040059Y040350D01*
Y040059D01*
X040350D01*
X040345Y040093D01*
X040315Y040166D01*
X040357Y040194D01*
X040401Y040151D01*
X040446Y040120D01*
X040500Y040110D01*
X040831D01*
Y039896D01*
X041461D01*
Y040604D01*
X040831D01*
Y040391D01*
X040558D01*
X040141Y040808D01*
Y041594D01*
X040216Y041625D01*
X040306Y041694D01*
X040375Y041784D01*
X040418Y041888D01*
X040432Y042000D01*
X040418Y042112D01*
X040375Y042216D01*
X040306Y042306D01*
X040216Y042375D01*
X040112Y042418D01*
X040000Y042432D01*
X039888Y042418D01*
X039784Y042375D01*
X039694Y042306D01*
X039650Y042248D01*
X039600Y042265D01*
Y042735D01*
X039650Y042752D01*
X039694Y042694D01*
X039784Y042625D01*
X039888Y042582D01*
X040000Y042568D01*
X040112Y042582D01*
X040216Y042625D01*
X040306Y042694D01*
X040375Y042784D01*
X040406Y042860D01*
X041738D01*
X041763Y042822D01*
X041825Y042781D01*
X041898Y042766D01*
X041930Y042734D01*
X041945Y042661D01*
X041986Y042600D01*
X042048Y042558D01*
X042109Y042546D01*
X042126Y042511D01*
X042128Y042495D01*
X041774Y042140D01*
X041347D01*
X041330Y042165D01*
X041255Y042215D01*
X041165Y042233D01*
X041076Y042215D01*
X041000Y042165D01*
X040950Y042089D01*
X040932Y042000D01*
X040950Y041911D01*
X041000Y041835D01*
X041076Y041785D01*
X041165Y041767D01*
X041255Y041785D01*
X041330Y041835D01*
X041347Y041859D01*
X041832D01*
X041876Y041868D01*
X041899Y041841D01*
X041906Y041827D01*
X041703Y041624D01*
X041539D01*
Y041663D01*
X041224D01*
Y041250D01*
Y040837D01*
X041539D01*
Y040876D01*
X041610D01*
Y040604D01*
X041539D01*
Y039896D01*
X042169D01*
Y040604D01*
X041891D01*
Y040859D01*
X042000D01*
X042054Y040870D01*
X042062Y040876D01*
X042169D01*
Y041624D01*
X042165D01*
X042146Y041670D01*
X042513Y042037D01*
X042567Y042021D01*
X042576Y041978D01*
X042592Y041953D01*
X042900Y042261D01*
X043208Y042569D01*
X043184Y042586D01*
X043141Y042594D01*
X043124Y042649D01*
X043264Y042788D01*
X043295Y042834D01*
X043305Y042888D01*
Y043165D01*
X043295Y043219D01*
X043276Y043246D01*
X044278Y044248D01*
X044513Y044013D01*
X044559Y043983D01*
X044612Y043972D01*
X044835D01*
X044889Y043983D01*
X044935Y044013D01*
X045074Y044153D01*
X045128Y044136D01*
X045137Y044094D01*
X045154Y044069D01*
X045462Y044377D01*
X045770Y044685D01*
X045745Y044702D01*
X045656Y044719D01*
X045618Y044745D01*
X045610Y044784D01*
X045569Y044846D01*
X045507Y044887D01*
X045468Y044895D01*
X045442Y044934D01*
X045424Y045022D01*
X045408Y045047D01*
X045100Y044739D01*
X045016Y044822D01*
X045324Y045130D01*
X045299Y045147D01*
X045257Y045155D01*
X045240Y045210D01*
X045559Y045529D01*
X045589Y045535D01*
X045665Y045585D01*
X045715Y045661D01*
X045733Y045750D01*
X045715Y045839D01*
X045665Y045915D01*
X045641Y045931D01*
Y046376D01*
X045711D01*
Y046337D01*
X046026D01*
Y046750D01*
Y047163D01*
X045711D01*
Y047124D01*
X045081D01*
Y046376D01*
X045360D01*
Y045931D01*
X045335Y045915D01*
X045285Y045839D01*
X045267Y045750D01*
X045285Y045661D01*
X045288Y045655D01*
X045032Y045399D01*
X045018Y045406D01*
X044991Y045429D01*
X045000Y045473D01*
Y046641D01*
X044989Y046694D01*
X044959Y046740D01*
X044599Y047099D01*
X044554Y047130D01*
X044500Y047140D01*
X044304D01*
X044292Y047169D01*
X044239Y047239D01*
X044169Y047292D01*
X044087Y047326D01*
X044000Y047338D01*
X043913Y047326D01*
X043831Y047292D01*
X043761Y047239D01*
X043708Y047169D01*
X043674Y047087D01*
X043662Y047000D01*
X043674Y046913D01*
X043708Y046831D01*
X043761Y046761D01*
X043831Y046708D01*
X043913Y046674D01*
X044000Y046662D01*
X044087Y046674D01*
X044169Y046708D01*
X044239Y046761D01*
X044292Y046831D01*
X044304Y046859D01*
X044442D01*
X044719Y046582D01*
Y046163D01*
X044669Y046142D01*
X044462Y046349D01*
X044416Y046380D01*
X044362Y046391D01*
X044304D01*
X044292Y046419D01*
X044239Y046489D01*
X044169Y046542D01*
X044087Y046576D01*
X044000Y046588D01*
X043913Y046576D01*
X043831Y046542D01*
X043761Y046489D01*
X043708Y046419D01*
X043674Y046337D01*
X043662Y046250D01*
X043674Y046163D01*
X043708Y046081D01*
X043761Y046011D01*
X043831Y045958D01*
X043913Y045924D01*
X044000Y045912D01*
X044087Y045924D01*
X044169Y045958D01*
X044239Y046011D01*
X044279Y046064D01*
X044331Y046074D01*
X044342Y046071D01*
X044472Y045942D01*
Y045778D01*
X044470Y045778D01*
X044408Y045737D01*
X044313Y045642D01*
X044290Y045627D01*
X044275Y045604D01*
X044102Y045430D01*
X044060Y045369D01*
X044046Y045296D01*
X044060Y045223D01*
X044102Y045161D01*
X044164Y045119D01*
X044237Y045105D01*
X044271Y045061D01*
X044283Y045000D01*
X044325Y044938D01*
X044386Y044897D01*
X044447Y044885D01*
X044464Y044850D01*
X044467Y044834D01*
X044179Y044546D01*
X043081Y043448D01*
X043041Y043487D01*
X042996Y043517D01*
X042942Y043528D01*
X042774D01*
X042720Y043517D01*
X042675Y043487D01*
X042444Y043256D01*
X042427Y043258D01*
X042393Y043276D01*
X042381Y043336D01*
X042339Y043398D01*
X042277Y043440D01*
X042204Y043454D01*
X042131Y043440D01*
X042070Y043398D01*
X041812Y043140D01*
X040406D01*
X040375Y043216D01*
X040306Y043306D01*
X040216Y043375D01*
X040112Y043418D01*
X040000Y043432D01*
X039888Y043418D01*
X039784Y043375D01*
X039694Y043306D01*
X039650Y043248D01*
X039600Y043265D01*
Y043735D01*
X039650Y043752D01*
X039694Y043694D01*
X039784Y043625D01*
X039888Y043582D01*
X040000Y043568D01*
X040112Y043582D01*
X040216Y043625D01*
X040306Y043694D01*
X040374Y043784D01*
X040406Y043860D01*
X041812D01*
X042070Y043602D01*
X042131Y043560D01*
X042204Y043546D01*
X042277Y043560D01*
X042339Y043602D01*
X042381Y043664D01*
X042395Y043737D01*
X042427Y043769D01*
X042500Y043783D01*
X042562Y043825D01*
X042603Y043886D01*
X042618Y043959D01*
X042662Y043994D01*
X042723Y044006D01*
X042785Y044047D01*
X042826Y044109D01*
X042840Y044182D01*
X042873Y044214D01*
X042945Y044229D01*
X043007Y044270D01*
X043049Y044332D01*
X043063Y044405D01*
X043095Y044437D01*
X043168Y044451D01*
X043230Y044493D01*
X043271Y044555D01*
X043286Y044627D01*
X043318Y044660D01*
X043391Y044674D01*
X043453Y044715D01*
X043494Y044777D01*
X043509Y044850D01*
X043541Y044882D01*
X043614Y044897D01*
X043675Y044938D01*
X043717Y045000D01*
X043731Y045073D01*
X043763Y045105D01*
X043836Y045119D01*
X043898Y045161D01*
X043940Y045223D01*
X043954Y045296D01*
X043940Y045369D01*
X043898Y045430D01*
X043592Y045737D01*
X043530Y045778D01*
X043467Y045791D01*
X043037Y046220D01*
X043038Y046225D01*
X043020Y046314D01*
X042970Y046390D01*
X042894Y046440D01*
X042805Y046458D01*
X042716Y046440D01*
X042640Y046390D01*
X042589Y046314D01*
X042572Y046225D01*
X042589Y046136D01*
X042640Y046060D01*
X042716Y046009D01*
X042805Y045992D01*
X042858Y046002D01*
X043225Y045635D01*
X043208Y045582D01*
X043177Y045577D01*
X043028Y045725D01*
X042982Y045756D01*
X042929Y045766D01*
X042767D01*
X042062Y046471D01*
X042068Y046500D01*
X042050Y046589D01*
X042000Y046665D01*
X041924Y046715D01*
X041835Y046733D01*
X041745Y046715D01*
X041670Y046665D01*
X041619Y046589D01*
X041601Y046500D01*
X041619Y046411D01*
X041670Y046335D01*
X041745Y046285D01*
X041835Y046267D01*
X041863Y046273D01*
X042609Y045527D01*
X042655Y045496D01*
X042709Y045485D01*
X042870D01*
X042972Y045384D01*
X042957Y045336D01*
X042939Y045333D01*
X042914Y045316D01*
X042891Y045320D01*
X042552D01*
X041773Y046099D01*
X041727Y046130D01*
X041673Y046140D01*
X040431D01*
X040415Y046165D01*
X040339Y046215D01*
X040250Y046233D01*
X040161Y046215D01*
X040085Y046165D01*
X040035Y046089D01*
X040017Y046000D01*
X040035Y045911D01*
X040085Y045835D01*
X040161Y045785D01*
X040250Y045767D01*
X040339Y045785D01*
X040415Y045835D01*
X040431Y045859D01*
X041615D01*
X041839Y045635D01*
X041820Y045589D01*
X041181D01*
X041165Y045614D01*
X041089Y045664D01*
X041000Y045682D01*
X040911Y045664D01*
X040835Y045614D01*
X040785Y045538D01*
X040767Y045449D01*
X040785Y045359D01*
X040835Y045284D01*
X040911Y045233D01*
X041000Y045216D01*
X041089Y045233D01*
X041165Y045284D01*
X041181Y045308D01*
X041305D01*
X041320Y045258D01*
X041288Y045237D01*
X041029Y044977D01*
X041000Y044983D01*
X040911Y044965D01*
X040835Y044915D01*
X040785Y044839D01*
X040767Y044750D01*
X040785Y044661D01*
X040835Y044585D01*
X040911Y044535D01*
X040955Y044526D01*
X040950Y044476D01*
X040723D01*
X040429Y044770D01*
Y045429D01*
X039600D01*
Y046941D01*
X039650Y046944D01*
X039655Y046908D01*
X039690Y046821D01*
X039747Y046747D01*
X039821Y046690D01*
X039908Y046655D01*
X039941Y046650D01*
Y047000D01*
X040000D01*
Y047059D01*
X040350D01*
X040345Y047092D01*
X040310Y047179D01*
X040253Y047253D01*
X040179Y047310D01*
X040093Y047345D01*
X040056Y047350D01*
X040059Y047400D01*
X058941D01*
X058944Y047350D01*
D02*
G37*
%LPC*%
G36*
X055809Y042633D02*
Y042429D01*
X056013D01*
X056011Y042440D01*
X055984Y042505D01*
X055941Y042561D01*
X055885Y042604D01*
X055820Y042631D01*
X055809Y042633D01*
D02*
G37*
G36*
X052000Y046818D02*
X051918Y046807D01*
X051841Y046775D01*
X051775Y046725D01*
X051725Y046659D01*
X051693Y046582D01*
X051682Y046500D01*
X051693Y046418D01*
X051725Y046341D01*
X051775Y046275D01*
X051841Y046225D01*
X051918Y046193D01*
X052000Y046182D01*
X052082Y046193D01*
X052159Y046225D01*
X052225Y046275D01*
X052275Y046341D01*
X052283Y046360D01*
X053087D01*
X053609Y045837D01*
Y043854D01*
X053620Y043801D01*
X053651Y043755D01*
X053896Y043510D01*
Y043039D01*
X054604D01*
Y043669D01*
X054134D01*
X053891Y043913D01*
Y045896D01*
X053880Y045949D01*
X053849Y045995D01*
X053245Y046599D01*
X053199Y046630D01*
X053146Y046641D01*
X052283D01*
X052275Y046659D01*
X052225Y046725D01*
X052159Y046775D01*
X052082Y046807D01*
X052000Y046818D01*
D02*
G37*
G36*
X055691Y042633D02*
X055680Y042631D01*
X055615Y042604D01*
X055559Y042561D01*
X055516Y042505D01*
X055489Y042440D01*
X055487Y042429D01*
X055691D01*
Y042633D01*
D02*
G37*
G36*
X054604Y042961D02*
X053896D01*
Y042331D01*
X054110D01*
Y042250D01*
X054120Y042196D01*
X054151Y042151D01*
X054247Y042054D01*
X054241Y042025D01*
X054259Y041936D01*
X054310Y041860D01*
X054385Y041810D01*
X054475Y041792D01*
X054564Y041810D01*
X054640Y041860D01*
X054690Y041936D01*
X054708Y042025D01*
X054690Y042115D01*
X054640Y042190D01*
X054564Y042241D01*
X054475Y042259D01*
X054458Y042255D01*
X054432Y042283D01*
X054452Y042331D01*
X054604D01*
Y042961D01*
D02*
G37*
G36*
X055691Y042311D02*
X055487D01*
X055489Y042300D01*
X055516Y042235D01*
X055559Y042179D01*
X055615Y042136D01*
X055680Y042109D01*
X055691Y042107D01*
Y042311D01*
D02*
G37*
G36*
X056013D02*
X055809D01*
Y042107D01*
X055820Y042109D01*
X055885Y042136D01*
X055941Y042179D01*
X055984Y042235D01*
X056011Y042300D01*
X056013Y042311D01*
D02*
G37*
G36*
X053419Y045049D02*
X052789D01*
Y044655D01*
X053102D01*
X053109Y044648D01*
Y043669D01*
X052896D01*
Y043039D01*
X053604D01*
Y043669D01*
X053390D01*
Y044655D01*
X053419D01*
Y045049D01*
D02*
G37*
G36*
X058891Y044891D02*
X058486D01*
X058494Y044828D01*
X058541Y044714D01*
X058616Y044616D01*
X058714Y044541D01*
X058828Y044494D01*
X058891Y044486D01*
Y044891D01*
D02*
G37*
G36*
X049854Y045187D02*
X049146D01*
Y044565D01*
X049146Y044557D01*
X049127Y044515D01*
X049056D01*
X048854Y044716D01*
Y045187D01*
X048146D01*
Y044565D01*
X048146Y044557D01*
X048127Y044515D01*
X047891D01*
X047669Y044736D01*
Y045049D01*
X047039D01*
X047039Y044655D01*
X046995Y044640D01*
X046114D01*
X046060Y044630D01*
X046014Y044599D01*
X045932Y044518D01*
X045878Y044534D01*
X045870Y044577D01*
X045853Y044601D01*
X045545Y044293D01*
X045237Y043985D01*
X045262Y043969D01*
X045350Y043951D01*
X045389Y043925D01*
X045397Y043886D01*
X045438Y043825D01*
X045500Y043783D01*
X045573Y043769D01*
X045607Y043725D01*
X045619Y043664D01*
X045661Y043602D01*
X045723Y043560D01*
X045796Y043546D01*
X045869Y043560D01*
X045930Y043602D01*
X046237Y043908D01*
X046278Y043970D01*
X046291Y044033D01*
X046367Y044110D01*
X047134D01*
X047860Y043384D01*
Y042419D01*
X047646D01*
Y041789D01*
X048273D01*
Y041711D01*
X047646D01*
Y041081D01*
X047860D01*
Y040783D01*
X047841Y040775D01*
X047775Y040725D01*
X047725Y040659D01*
X047693Y040582D01*
X047682Y040500D01*
X047693Y040418D01*
X047725Y040341D01*
X047775Y040275D01*
X047841Y040225D01*
X047918Y040193D01*
X048000Y040182D01*
X048082Y040193D01*
X048159Y040225D01*
X048188Y040247D01*
X048201Y040249D01*
X048245Y040228D01*
X048246Y040217D01*
X048155Y040126D01*
X046844D01*
X046621Y040349D01*
X046575Y040380D01*
X046522Y040390D01*
X046395D01*
Y040604D01*
X045765D01*
Y039896D01*
X046395D01*
Y040110D01*
X046463D01*
X046687Y039886D01*
X046732Y039856D01*
X046786Y039845D01*
X048213D01*
X048267Y039856D01*
X048313Y039886D01*
X048513Y040086D01*
X048543Y040132D01*
X048554Y040186D01*
Y043308D01*
X048543Y043361D01*
X048513Y043407D01*
X048193Y043727D01*
X048217Y043773D01*
X048250Y043767D01*
X048279Y043773D01*
X048795Y043257D01*
Y042419D01*
X048646D01*
Y041789D01*
X049328Y041789D01*
X049351Y041750D01*
X049328Y041711D01*
X048646D01*
Y041081D01*
X048860D01*
Y040783D01*
X048841Y040775D01*
X048775Y040725D01*
X048725Y040659D01*
X048693Y040582D01*
X048682Y040500D01*
X048693Y040418D01*
X048725Y040341D01*
X048775Y040275D01*
X048841Y040225D01*
X048918Y040193D01*
X049000Y040182D01*
X049082Y040193D01*
X049159Y040225D01*
X049225Y040275D01*
X049275Y040341D01*
X049307Y040418D01*
X049310Y040438D01*
X049359Y040435D01*
Y040181D01*
X049335Y040165D01*
X049285Y040089D01*
X049267Y040000D01*
X049285Y039911D01*
X049335Y039835D01*
X049411Y039785D01*
X049500Y039767D01*
X049589Y039785D01*
X049665Y039835D01*
X049715Y039911D01*
X049733Y040000D01*
X049715Y040089D01*
X049665Y040165D01*
X049640Y040181D01*
Y040435D01*
X049690Y040438D01*
X049693Y040418D01*
X049725Y040341D01*
X049775Y040275D01*
X049841Y040225D01*
X049918Y040193D01*
X050000Y040182D01*
X050082Y040193D01*
X050159Y040225D01*
X050225Y040275D01*
X050275Y040341D01*
X050307Y040418D01*
X050318Y040500D01*
X050307Y040582D01*
X050275Y040659D01*
X050225Y040725D01*
X050159Y040775D01*
X050141Y040783D01*
Y041081D01*
X050354D01*
Y041711D01*
X049672Y041711D01*
X049649Y041750D01*
X049672Y041789D01*
X050354D01*
Y042419D01*
X050140D01*
Y042569D01*
X050165Y042585D01*
X050215Y042661D01*
X050233Y042750D01*
X050215Y042839D01*
X050165Y042915D01*
X050089Y042965D01*
X050000Y042983D01*
X049911Y042965D01*
X049835Y042915D01*
X049785Y042839D01*
X049767Y042750D01*
X049785Y042661D01*
X049835Y042585D01*
X049859Y042569D01*
Y042419D01*
X049646Y042419D01*
X049640Y042467D01*
Y043279D01*
X049630Y043333D01*
X049599Y043378D01*
X048504Y044473D01*
X048459Y044504D01*
X048444Y044507D01*
X048449Y044557D01*
X048616D01*
X048898Y044275D01*
X048944Y044244D01*
X048998Y044234D01*
X049348D01*
X049363Y044184D01*
X049335Y044165D01*
X049285Y044089D01*
X049267Y044000D01*
X049285Y043911D01*
X049335Y043835D01*
X049411Y043785D01*
X049500Y043767D01*
X049529Y043773D01*
X050832Y042469D01*
X050811Y042419D01*
X050646D01*
Y041789D01*
X051354D01*
Y042419D01*
X051140D01*
Y042500D01*
X051130Y042554D01*
X051099Y042599D01*
X049727Y043971D01*
X049733Y044000D01*
X049715Y044089D01*
X049665Y044165D01*
X049637Y044184D01*
X049652Y044234D01*
X049818D01*
X051273Y042779D01*
X051267Y042750D01*
X051285Y042661D01*
X051335Y042585D01*
X051411Y042535D01*
X051500Y042517D01*
X051589Y042535D01*
X051665Y042585D01*
X051715Y042661D01*
X051733Y042750D01*
X051715Y042839D01*
X051665Y042915D01*
X051589Y042965D01*
X051500Y042983D01*
X051471Y042977D01*
X049975Y044473D01*
X049930Y044504D01*
X049876Y044515D01*
X049873D01*
X049854Y044557D01*
X049854Y044565D01*
Y044731D01*
X050138D01*
X050590Y044279D01*
X050584Y044250D01*
X050602Y044161D01*
X050653Y044085D01*
X050728Y044035D01*
X050818Y044017D01*
X050907Y044035D01*
X050983Y044085D01*
X051033Y044161D01*
X051051Y044250D01*
X051033Y044339D01*
X050983Y044415D01*
X050907Y044465D01*
X050818Y044483D01*
X050789Y044477D01*
X050295Y044971D01*
X050250Y045001D01*
X050196Y045012D01*
X049854D01*
Y045187D01*
D02*
G37*
G36*
X055079Y045907D02*
X054321D01*
Y045349D01*
X054560D01*
Y044962D01*
X054535Y044946D01*
X054485Y044870D01*
X054467Y044781D01*
X054485Y044691D01*
X054535Y044616D01*
X054611Y044565D01*
X054700Y044547D01*
X054789Y044565D01*
X054865Y044616D01*
X054915Y044691D01*
X054933Y044781D01*
X054915Y044870D01*
X054865Y044946D01*
X054840Y044962D01*
Y045349D01*
X055079D01*
Y045907D01*
D02*
G37*
G36*
X056159Y044314D02*
X055716D01*
Y044009D01*
X056159D01*
Y044314D01*
D02*
G37*
G36*
X051669Y045049D02*
X051039D01*
Y044655D01*
X051352D01*
X052109Y043898D01*
Y043688D01*
X051896D01*
Y043059D01*
X052604D01*
Y043688D01*
X052390D01*
Y043956D01*
X052380Y044010D01*
X052349Y044056D01*
X051669Y044736D01*
Y045049D01*
D02*
G37*
G36*
X047250Y043483D02*
X047161Y043465D01*
X047085Y043415D01*
X047069Y043390D01*
X046309D01*
X046255Y043380D01*
X046210Y043349D01*
X046094Y043234D01*
X045930Y043398D01*
X045869Y043440D01*
X045796Y043454D01*
X045723Y043440D01*
X045661Y043398D01*
X045619Y043336D01*
X045605Y043263D01*
X045573Y043231D01*
X045500Y043217D01*
X045438Y043175D01*
X045397Y043114D01*
X045382Y043041D01*
X045338Y043006D01*
X045277Y042994D01*
X045215Y042953D01*
X045174Y042891D01*
X045160Y042818D01*
X045127Y042786D01*
X045055Y042771D01*
X044993Y042730D01*
X044951Y042668D01*
X044939Y042607D01*
X044905Y042563D01*
X044832Y042549D01*
X044770Y042507D01*
X044729Y042445D01*
X044717Y042385D01*
X044696Y042358D01*
X044670Y042338D01*
X044609Y042326D01*
X044547Y042285D01*
X044506Y042223D01*
X044491Y042150D01*
X044447Y042115D01*
X044386Y042103D01*
X044325Y042062D01*
X044283Y042000D01*
X044269Y041927D01*
X044225Y041893D01*
X044164Y041881D01*
X044102Y041839D01*
X044060Y041777D01*
X044046Y041704D01*
X044060Y041631D01*
X044102Y041570D01*
X044363Y041309D01*
X044255Y041201D01*
X044225Y041155D01*
X044214Y041101D01*
Y040604D01*
X044039D01*
Y039896D01*
X044669D01*
Y040604D01*
X044495D01*
Y041043D01*
X044642Y041191D01*
X044673Y041236D01*
X044678Y041264D01*
X044719Y041325D01*
X044731Y041386D01*
X044766Y041403D01*
X044782Y041406D01*
X044859Y041328D01*
Y041181D01*
X044835Y041165D01*
X044785Y041089D01*
X044767Y041000D01*
X044785Y040911D01*
X044835Y040835D01*
X044911Y040785D01*
X045000Y040767D01*
X045089Y040785D01*
X045165Y040835D01*
X045215Y040911D01*
X045233Y041000D01*
X045215Y041089D01*
X045165Y041165D01*
X045141Y041181D01*
Y041386D01*
X045132Y041431D01*
X045155Y041453D01*
X045173Y041462D01*
X045213Y041435D01*
X045267Y041424D01*
X045282D01*
X045285Y041411D01*
X045335Y041335D01*
X045411Y041285D01*
X045500Y041267D01*
X045589Y041285D01*
X045665Y041335D01*
X045715Y041411D01*
X045733Y041500D01*
X045715Y041589D01*
X045665Y041665D01*
X045589Y041715D01*
X045582Y041717D01*
X045587Y041767D01*
X046008D01*
X046134Y041641D01*
X046180Y041610D01*
X046234Y041600D01*
X047069D01*
X047085Y041575D01*
X047161Y041525D01*
X047250Y041507D01*
X047339Y041525D01*
X047415Y041575D01*
X047465Y041651D01*
X047483Y041740D01*
X047465Y041829D01*
X047415Y041905D01*
X047339Y041956D01*
X047250Y041973D01*
X047161Y041956D01*
X047085Y041905D01*
X047069Y041881D01*
X046636D01*
X046621Y041931D01*
X046665Y041960D01*
X046715Y042036D01*
X046733Y042125D01*
X046715Y042214D01*
X046665Y042290D01*
X046637Y042308D01*
X046652Y042358D01*
X047068D01*
X047084Y042334D01*
X047160Y042283D01*
X047249Y042266D01*
X047338Y042283D01*
X047414Y042334D01*
X047464Y042410D01*
X047482Y042499D01*
X047464Y042588D01*
X047414Y042664D01*
X047338Y042714D01*
X047249Y042732D01*
X047160Y042714D01*
X047084Y042664D01*
X047068Y042639D01*
X046676D01*
X046660Y042689D01*
X046690Y042709D01*
X046741Y042785D01*
X046758Y042874D01*
X046741Y042963D01*
X046690Y043039D01*
X046659Y043060D01*
X046674Y043109D01*
X047069D01*
X047085Y043085D01*
X047161Y043035D01*
X047250Y043017D01*
X047339Y043035D01*
X047415Y043085D01*
X047465Y043161D01*
X047483Y043250D01*
X047465Y043339D01*
X047415Y043415D01*
X047339Y043465D01*
X047250Y043483D01*
D02*
G37*
G36*
X056159Y043891D02*
X055716D01*
Y043586D01*
X056159D01*
Y043891D01*
D02*
G37*
G36*
X043292Y042486D02*
X042984Y042178D01*
X042676Y041870D01*
X042701Y041853D01*
X042782Y041837D01*
X042798Y041755D01*
X042842Y041691D01*
X042825Y041641D01*
X042681D01*
X042665Y041665D01*
X042589Y041715D01*
X042500Y041733D01*
X042411Y041715D01*
X042335Y041665D01*
X042285Y041589D01*
X042267Y041500D01*
X042285Y041411D01*
X042335Y041335D01*
X042411Y041285D01*
X042500Y041267D01*
X042589Y041285D01*
X042665Y041335D01*
X042681Y041360D01*
X043114D01*
X043158Y041368D01*
X043181Y041341D01*
X043187Y041327D01*
X042793Y040933D01*
X042744Y040965D01*
X042654Y040983D01*
X042565Y040965D01*
X042490Y040915D01*
X042439Y040839D01*
X042421Y040750D01*
X042439Y040661D01*
X042490Y040585D01*
X042565Y040535D01*
X042654Y040517D01*
X042744Y040535D01*
X042819Y040585D01*
X042840Y040616D01*
X042863Y040620D01*
X042908Y040651D01*
X043467Y041209D01*
X043530Y041222D01*
X043592Y041263D01*
X043898Y041570D01*
X043940Y041631D01*
X043954Y041704D01*
X043940Y041777D01*
X043898Y041839D01*
X043836Y041881D01*
X043763Y041895D01*
X043731Y041927D01*
X043717Y042000D01*
X043675Y042062D01*
X043614Y042103D01*
X043575Y042111D01*
X043549Y042150D01*
X043531Y042238D01*
X043515Y042263D01*
X043207Y041955D01*
X043123Y042038D01*
X043431Y042346D01*
X043406Y042363D01*
X043325Y042379D01*
X043308Y042461D01*
X043292Y042486D01*
D02*
G37*
G36*
X043961Y040604D02*
X043331D01*
Y040390D01*
X042969D01*
X042916Y040380D01*
X042870Y040349D01*
X042748Y040227D01*
X042719Y040233D01*
X042630Y040215D01*
X042554Y040165D01*
X042504Y040089D01*
X042486Y040000D01*
X042504Y039911D01*
X042554Y039835D01*
X042630Y039785D01*
X042719Y039767D01*
X042809Y039785D01*
X042884Y039835D01*
X042935Y039911D01*
X042953Y040000D01*
X042947Y040029D01*
X043028Y040110D01*
X043331D01*
Y039896D01*
X043961D01*
Y040604D01*
D02*
G37*
G36*
X055461Y040854D02*
X054831D01*
Y040384D01*
X054713Y040266D01*
X054169D01*
Y040323D01*
X053539D01*
Y039929D01*
X054169D01*
Y039985D01*
X054772D01*
X054825Y039996D01*
X054871Y040027D01*
X054990Y040146D01*
X055461D01*
Y040854D01*
D02*
G37*
G36*
X052000Y040818D02*
X051918Y040807D01*
X051841Y040775D01*
X051775Y040725D01*
X051725Y040659D01*
X051693Y040582D01*
X051682Y040500D01*
X051693Y040418D01*
X051725Y040341D01*
X051775Y040275D01*
X051841Y040225D01*
X051918Y040193D01*
X052000Y040182D01*
X052082Y040193D01*
X052159Y040225D01*
X052225Y040275D01*
X052275Y040341D01*
X052283Y040360D01*
X052831D01*
Y040303D01*
X053461D01*
Y040612D01*
X053500Y040638D01*
X053511Y040638D01*
X053795D01*
Y040815D01*
X053500D01*
Y040723D01*
X053461Y040697D01*
X053450Y040697D01*
X052831D01*
Y040641D01*
X052283D01*
X052275Y040659D01*
X052225Y040725D01*
X052159Y040775D01*
X052082Y040807D01*
X052000Y040818D01*
D02*
G37*
G36*
X051354Y041711D02*
X050646D01*
Y041081D01*
X050859D01*
Y040783D01*
X050841Y040775D01*
X050775Y040725D01*
X050725Y040659D01*
X050693Y040582D01*
X050682Y040500D01*
X050693Y040418D01*
X050725Y040341D01*
X050775Y040275D01*
X050841Y040225D01*
X050918Y040193D01*
X051000Y040182D01*
X051082Y040193D01*
X051159Y040225D01*
X051225Y040275D01*
X051275Y040341D01*
X051307Y040418D01*
X051318Y040500D01*
X051307Y040582D01*
X051275Y040659D01*
X051225Y040725D01*
X051159Y040775D01*
X051140Y040783D01*
Y041081D01*
X051354D01*
Y041711D01*
D02*
G37*
G36*
X058941Y040350D02*
X058907Y040345D01*
X058821Y040310D01*
X058747Y040253D01*
X058690Y040179D01*
X058655Y040093D01*
X058650Y040059D01*
X058941D01*
Y040350D01*
D02*
G37*
G36*
X053450Y041733D02*
X053361Y041715D01*
X053285Y041665D01*
X053235Y041589D01*
X053217Y041500D01*
X053235Y041411D01*
X053285Y041335D01*
X053361Y041285D01*
X053450Y041267D01*
X053539Y041285D01*
X053615Y041335D01*
X053631Y041360D01*
X055292D01*
X055637Y041014D01*
Y040854D01*
X055539D01*
Y040146D01*
X056169D01*
Y040854D01*
X055918D01*
Y041072D01*
X055908Y041126D01*
X055877Y041172D01*
X055449Y041599D01*
X055404Y041630D01*
X055350Y041641D01*
X053631D01*
X053615Y041665D01*
X053539Y041715D01*
X053450Y041733D01*
D02*
G37*
G36*
X046626Y041015D02*
X045627D01*
X045574Y041004D01*
X045528Y040973D01*
X045272Y040718D01*
X045242Y040672D01*
X045231Y040618D01*
Y040604D01*
X045057D01*
Y039896D01*
X045687D01*
Y040604D01*
X045622D01*
X045603Y040651D01*
X045686Y040734D01*
X046568D01*
X046701Y040601D01*
X046693Y040582D01*
X046682Y040500D01*
X046693Y040418D01*
X046725Y040341D01*
X046775Y040275D01*
X046841Y040225D01*
X046918Y040193D01*
X047000Y040182D01*
X047082Y040193D01*
X047159Y040225D01*
X047225Y040275D01*
X047275Y040341D01*
X047307Y040418D01*
X047318Y040500D01*
X047307Y040582D01*
X047275Y040659D01*
X047225Y040725D01*
X047159Y040775D01*
X047082Y040807D01*
X047000Y040818D01*
X046918Y040807D01*
X046899Y040799D01*
X046725Y040973D01*
X046680Y041004D01*
X046626Y041015D01*
D02*
G37*
G36*
X052604Y042980D02*
X051896D01*
Y042350D01*
X052089D01*
X052101Y042300D01*
X051951Y042149D01*
X051920Y042104D01*
X051909Y042050D01*
Y041681D01*
X051885Y041665D01*
X051835Y041589D01*
X051817Y041500D01*
X051835Y041411D01*
X051885Y041335D01*
X051961Y041285D01*
X052050Y041267D01*
X052139Y041285D01*
X052215Y041335D01*
X052265Y041411D01*
X052283Y041500D01*
X052265Y041589D01*
X052215Y041665D01*
X052190Y041681D01*
Y041992D01*
X052349Y042151D01*
X052380Y042196D01*
X052390Y042250D01*
Y042350D01*
X052604D01*
Y042980D01*
D02*
G37*
G36*
X053604Y042961D02*
X052896D01*
Y042331D01*
X053061D01*
X053082Y042281D01*
X052651Y041849D01*
X052620Y041804D01*
X052610Y041750D01*
Y041681D01*
X052585Y041665D01*
X052535Y041589D01*
X052517Y041500D01*
X052535Y041411D01*
X052585Y041335D01*
X052661Y041285D01*
X052750Y041267D01*
X052839Y041285D01*
X052915Y041335D01*
X052965Y041411D01*
X052983Y041500D01*
X052965Y041589D01*
X052915Y041665D01*
X052920Y041722D01*
X053349Y042151D01*
X053380Y042196D01*
X053390Y042250D01*
Y042331D01*
X053604D01*
Y042961D01*
D02*
G37*
G36*
X041106Y041663D02*
X040791D01*
Y041309D01*
X041106D01*
Y041663D01*
D02*
G37*
G36*
X054209Y041110D02*
X053913D01*
Y040933D01*
X054209D01*
Y041110D01*
D02*
G37*
G36*
Y040815D02*
X053913D01*
Y040638D01*
X054209D01*
Y040815D01*
D02*
G37*
G36*
X041106Y041191D02*
X040791D01*
Y040837D01*
X041106D01*
Y041191D01*
D02*
G37*
G36*
X053795Y041110D02*
X053500D01*
Y040933D01*
X053795D01*
Y041110D01*
D02*
G37*
G36*
X053941Y046441D02*
X053737D01*
X053739Y046430D01*
X053766Y046365D01*
X053809Y046309D01*
X053865Y046266D01*
X053930Y046239D01*
X053941Y046237D01*
Y046441D01*
D02*
G37*
G36*
X054263D02*
X054059D01*
Y046237D01*
X054070Y046239D01*
X054135Y046266D01*
X054191Y046309D01*
X054234Y046365D01*
X054261Y046430D01*
X054263Y046441D01*
D02*
G37*
G36*
X046459Y046691D02*
X046144D01*
Y046337D01*
X046459D01*
Y046691D01*
D02*
G37*
G36*
X047000Y046818D02*
X046918Y046807D01*
X046841Y046775D01*
X046775Y046725D01*
X046725Y046659D01*
X046693Y046582D01*
X046682Y046500D01*
X046693Y046418D01*
X046701Y046399D01*
X046546Y046245D01*
X046516Y046199D01*
X046505Y046146D01*
Y045423D01*
X046331D01*
Y045029D01*
X046961D01*
Y045338D01*
X047000Y045364D01*
X047011Y045364D01*
X047295D01*
Y045541D01*
X047000D01*
Y045449D01*
X046961Y045423D01*
X046950Y045423D01*
X046786D01*
Y046087D01*
X046899Y046201D01*
X046918Y046193D01*
X047000Y046182D01*
X047082Y046193D01*
X047159Y046225D01*
X047225Y046275D01*
X047275Y046341D01*
X047307Y046418D01*
X047318Y046500D01*
X047307Y046582D01*
X047275Y046659D01*
X047225Y046725D01*
X047159Y046775D01*
X047082Y046807D01*
X047000Y046818D01*
D02*
G37*
G36*
X056094Y046105D02*
X055759D01*
Y045809D01*
X056094D01*
Y046105D01*
D02*
G37*
G36*
X057641D02*
X057306D01*
Y045809D01*
X057641D01*
Y046105D01*
D02*
G37*
G36*
X058094D02*
X057759D01*
Y045809D01*
X058094D01*
Y046105D01*
D02*
G37*
G36*
X046459Y047163D02*
X046144D01*
Y046809D01*
X046459D01*
Y047163D01*
D02*
G37*
G36*
X056054Y047187D02*
X055346D01*
Y047013D01*
X055079D01*
Y047187D01*
X054321D01*
Y046629D01*
X055079D01*
Y046732D01*
X055346D01*
Y046568D01*
X055346Y046557D01*
X055320Y046518D01*
X055306D01*
Y046223D01*
X055700D01*
X056094D01*
Y046518D01*
X056080D01*
X056054Y046557D01*
X056054Y046568D01*
Y047187D01*
D02*
G37*
G36*
X058054D02*
X057346D01*
Y047049D01*
X057079D01*
Y047187D01*
X056321D01*
Y046629D01*
X057079D01*
Y046768D01*
X057346D01*
Y046568D01*
X057346Y046557D01*
X057320Y046518D01*
X057306D01*
Y046223D01*
X058094D01*
Y046518D01*
X058080D01*
X058054Y046557D01*
X058054Y046568D01*
Y047187D01*
D02*
G37*
G36*
X058941Y046941D02*
X058650D01*
X058655Y046908D01*
X058690Y046821D01*
X058747Y046747D01*
X058821Y046690D01*
X058907Y046655D01*
X058941Y046650D01*
Y046941D01*
D02*
G37*
G36*
X053941Y046763D02*
X053930Y046761D01*
X053865Y046734D01*
X053809Y046691D01*
X053766Y046635D01*
X053739Y046570D01*
X053737Y046559D01*
X053941D01*
Y046763D01*
D02*
G37*
G36*
X054059D02*
Y046559D01*
X054263D01*
X054261Y046570D01*
X054234Y046635D01*
X054191Y046691D01*
X054135Y046734D01*
X054070Y046761D01*
X054059Y046763D01*
D02*
G37*
G36*
X040350Y046941D02*
X040059D01*
Y046650D01*
X040093Y046655D01*
X040179Y046690D01*
X040253Y046747D01*
X040310Y046821D01*
X040345Y046908D01*
X040350Y046941D01*
D02*
G37*
G36*
X055641Y046105D02*
X055306D01*
Y045809D01*
X055641D01*
Y046105D01*
D02*
G37*
G36*
X048000Y046818D02*
X047918Y046807D01*
X047841Y046775D01*
X047775Y046725D01*
X047725Y046659D01*
X047693Y046582D01*
X047682Y046500D01*
X047693Y046418D01*
X047725Y046341D01*
X047775Y046275D01*
X047841Y046225D01*
X047860Y046217D01*
Y046080D01*
X047870Y046027D01*
X047901Y045981D01*
X048146Y045736D01*
Y045265D01*
X048854D01*
Y045895D01*
X048384D01*
X048141Y046139D01*
Y046217D01*
X048159Y046225D01*
X048225Y046275D01*
X048275Y046341D01*
X048307Y046418D01*
X048318Y046500D01*
X048307Y046582D01*
X048275Y046659D01*
X048225Y046725D01*
X048159Y046775D01*
X048082Y046807D01*
X048000Y046818D01*
D02*
G37*
G36*
X049000D02*
X048918Y046807D01*
X048841Y046775D01*
X048775Y046725D01*
X048725Y046659D01*
X048693Y046582D01*
X048682Y046500D01*
X048693Y046418D01*
X048725Y046341D01*
X048775Y046275D01*
X048841Y046225D01*
X048918Y046193D01*
X049000Y046182D01*
X049082Y046193D01*
X049101Y046201D01*
X049356Y045945D01*
X049351Y045895D01*
X049146D01*
Y045265D01*
X049854D01*
Y045895D01*
X049640D01*
Y046000D01*
X049630Y046054D01*
X049599Y046099D01*
X049299Y046399D01*
X049307Y046418D01*
X049318Y046500D01*
X049307Y046582D01*
X049275Y046659D01*
X049225Y046725D01*
X049159Y046775D01*
X049082Y046807D01*
X049000Y046818D01*
D02*
G37*
G36*
X047709Y045541D02*
X047413D01*
Y045364D01*
X047709D01*
Y045541D01*
D02*
G37*
G36*
X051000Y046818D02*
X050918Y046807D01*
X050841Y046775D01*
X050775Y046725D01*
X050725Y046659D01*
X050693Y046582D01*
X050682Y046500D01*
X050693Y046418D01*
X050725Y046341D01*
X050775Y046275D01*
X050841Y046225D01*
X050918Y046193D01*
X051000Y046182D01*
X051082Y046193D01*
X051159Y046225D01*
X051181Y046242D01*
X051541Y045882D01*
X051521Y045836D01*
X051413D01*
Y045659D01*
X051733D01*
X051755Y045668D01*
X052081Y045342D01*
Y045029D01*
X052711D01*
Y045338D01*
X052750Y045364D01*
X052761Y045364D01*
X053045D01*
Y045541D01*
X052750D01*
Y045449D01*
X052711Y045423D01*
X052700Y045423D01*
X052398D01*
X051317Y046503D01*
X051307Y046582D01*
X051275Y046659D01*
X051225Y046725D01*
X051159Y046775D01*
X051082Y046807D01*
X051000Y046818D01*
D02*
G37*
G36*
X057079Y045907D02*
X056321D01*
Y045448D01*
X055794Y044921D01*
X055681D01*
X055665Y044946D01*
X055589Y044996D01*
X055500Y045014D01*
X055411Y044996D01*
X055335Y044946D01*
X055285Y044870D01*
X055267Y044781D01*
X055285Y044691D01*
X055335Y044616D01*
X055411Y044565D01*
X055500Y044547D01*
X055589Y044565D01*
X055665Y044616D01*
X055681Y044640D01*
X055852D01*
X055906Y044651D01*
X055952Y044681D01*
X056620Y045349D01*
X057079D01*
Y045907D01*
D02*
G37*
G36*
X058891Y045414D02*
X058828Y045406D01*
X058714Y045359D01*
X058616Y045284D01*
X058541Y045186D01*
X058494Y045072D01*
X058486Y045009D01*
X058891D01*
Y045414D01*
D02*
G37*
G36*
X050000Y046818D02*
X049918Y046807D01*
X049841Y046775D01*
X049775Y046725D01*
X049725Y046659D01*
X049693Y046582D01*
X049682Y046500D01*
X049693Y046418D01*
X049725Y046341D01*
X049775Y046275D01*
X049841Y046225D01*
X049918Y046193D01*
X050000Y046182D01*
X050082Y046193D01*
X050159Y046225D01*
X050166Y046231D01*
X050505Y045892D01*
Y045423D01*
X050331D01*
Y045029D01*
X050961D01*
Y045338D01*
X051000Y045364D01*
X051011Y045364D01*
X051295D01*
Y045541D01*
X051000D01*
Y045449D01*
X050961Y045423D01*
X050950Y045423D01*
X050786D01*
Y045950D01*
X050775Y046004D01*
X050745Y046049D01*
X050315Y046479D01*
X050318Y046500D01*
X050307Y046582D01*
X050275Y046659D01*
X050225Y046725D01*
X050159Y046775D01*
X050082Y046807D01*
X050000Y046818D01*
D02*
G37*
G36*
X053045Y045836D02*
X052750D01*
Y045659D01*
X053045D01*
Y045836D01*
D02*
G37*
G36*
X047709D02*
X047413D01*
Y045659D01*
X047709D01*
Y045836D01*
D02*
G37*
G36*
X053459D02*
X053163D01*
Y045659D01*
X053459D01*
Y045836D01*
D02*
G37*
G36*
X051295D02*
X051000D01*
Y045659D01*
X051295D01*
Y045836D01*
D02*
G37*
G36*
X051709Y045541D02*
X051413D01*
Y045364D01*
X051709D01*
Y045541D01*
D02*
G37*
G36*
X053459D02*
X053163D01*
Y045364D01*
X053459D01*
Y045541D01*
D02*
G37*
G36*
X047295Y045836D02*
X047000D01*
Y045659D01*
X047295D01*
Y045836D01*
D02*
G37*
%LPD*%
D10*
X057182Y043950D02*
D03*
X056218D02*
D03*
D11*
X053854Y040126D02*
D03*
Y040874D02*
D03*
X053146Y040500D02*
D03*
X053104Y044852D02*
D03*
Y045600D02*
D03*
X052396Y045226D02*
D03*
X051354Y044852D02*
D03*
Y045600D02*
D03*
X050646Y045226D02*
D03*
X047354Y044852D02*
D03*
Y045600D02*
D03*
X046646Y045226D02*
D03*
D12*
X055146Y040500D02*
D03*
X055854D02*
D03*
X043646Y040250D02*
D03*
X044354D02*
D03*
X046080Y040250D02*
D03*
X045372D02*
D03*
X041146D02*
D03*
X041854D02*
D03*
D13*
X053250Y043354D02*
D03*
Y042646D02*
D03*
X052250Y043373D02*
D03*
Y042665D02*
D03*
X049000Y042104D02*
D03*
Y041396D02*
D03*
X051000Y042104D02*
D03*
Y041396D02*
D03*
X049500Y044872D02*
D03*
Y045580D02*
D03*
X048000Y042104D02*
D03*
Y041396D02*
D03*
X050000Y042104D02*
D03*
Y041396D02*
D03*
X054250Y042646D02*
D03*
Y043354D02*
D03*
X048500Y044872D02*
D03*
Y045580D02*
D03*
X057700Y046164D02*
D03*
Y046872D02*
D03*
X055700Y046164D02*
D03*
Y046872D02*
D03*
D14*
X041165Y041250D02*
D03*
X041835D02*
D03*
X046085Y046750D02*
D03*
X045415D02*
D03*
D15*
X045949Y043110D02*
D03*
X045726Y042888D02*
D03*
X045503Y042665D02*
D03*
X045281Y042442D02*
D03*
X045058Y042219D02*
D03*
X044835Y041997D02*
D03*
X044612Y041774D02*
D03*
X044390Y041551D02*
D03*
X042051Y043890D02*
D03*
X042274Y044112D02*
D03*
X042497Y044335D02*
D03*
X042719Y044558D02*
D03*
X042942Y044781D02*
D03*
X043165Y045003D02*
D03*
X043388Y045226D02*
D03*
X043610Y045449D02*
D03*
D16*
Y041551D02*
D03*
X043388Y041774D02*
D03*
X043165Y041997D02*
D03*
X042942Y042219D02*
D03*
X042719Y042442D02*
D03*
X042497Y042665D02*
D03*
X042274Y042888D02*
D03*
X042051Y043110D02*
D03*
X044390Y045449D02*
D03*
X044612Y045226D02*
D03*
X044835Y045003D02*
D03*
X045058Y044781D02*
D03*
X045281Y044558D02*
D03*
X045503Y044335D02*
D03*
X045726Y044112D02*
D03*
X045949Y043890D02*
D03*
D17*
X056700Y046908D02*
D03*
Y045628D02*
D03*
X054700Y046908D02*
D03*
Y045628D02*
D03*
D18*
X041750Y041250D02*
X042000Y041000D01*
X041750D02*
X042000D01*
X044278Y044447D02*
X045500Y045668D01*
X042992Y045165D02*
X043038Y045212D01*
X057182Y044196D02*
X058936Y045950D01*
X058950D01*
X057182Y043950D02*
Y044196D01*
X044354Y041101D02*
X044543Y041290D01*
X044354Y040250D02*
Y041101D01*
X042399Y044335D02*
Y044512D01*
X046059Y043000D02*
X046309Y043250D01*
X046345Y042499D02*
X047249D01*
X048000Y042104D02*
Y043443D01*
X047193Y044250D02*
X048000Y043443D01*
X046309Y044250D02*
X047193D01*
X047221Y044500D02*
X048413Y043308D01*
Y040186D02*
Y043308D01*
X046114Y044500D02*
X047221D01*
X046309Y043250D02*
X047250D01*
X046374Y042874D02*
X046525D01*
X046281Y042435D02*
X046345Y042499D01*
X045598Y042125D02*
X046500D01*
X046234Y041740D02*
X047250D01*
X046066Y041907D02*
X046234Y041740D01*
X045370Y041907D02*
X046066D01*
X045733Y042435D02*
X046281D01*
X045503Y042665D02*
X045733Y042435D01*
X046211Y042711D02*
X046374Y042874D01*
X045961Y042711D02*
X046211D01*
X045961D02*
Y042750D01*
X045864D02*
X045961D01*
X045726Y042888D02*
X045864Y042750D01*
X045435Y041565D02*
X045500Y041500D01*
X048250Y044000D02*
X048935Y043315D01*
X048405Y044374D02*
X049500Y043279D01*
X047832Y044374D02*
X048405D01*
X048935Y042169D02*
Y043315D01*
X045949Y043890D02*
X046309Y044250D01*
X045726Y044112D02*
X046114Y044500D01*
X045281Y042442D02*
X045598Y042125D01*
X045267Y041565D02*
X045435D01*
X044835Y041997D02*
X045267Y041565D01*
X048998Y044374D02*
X049876D01*
X051500Y042750D01*
X051000Y042104D02*
Y042500D01*
X049500Y044000D02*
X051000Y042500D01*
X050000Y042104D02*
Y042750D01*
X050000Y042750D01*
X050196Y044872D02*
X050818Y044250D01*
X049500Y044872D02*
X050196D01*
X048213Y039986D02*
X048413Y040186D01*
X046786Y039986D02*
X048213D01*
X046522Y040250D02*
X046786Y039986D01*
X046080Y040250D02*
X046522D01*
X046626Y040874D02*
X047000Y040500D01*
X045627Y040874D02*
X046626D01*
X045372Y040618D02*
X045627Y040874D01*
X045372Y040250D02*
Y040618D01*
X044543Y041290D02*
Y041398D01*
X044390Y041551D02*
X044543Y041398D01*
X042719Y040000D02*
X042969Y040250D01*
X043646D01*
X045058Y042219D02*
X045370Y041907D01*
X044886Y041500D02*
X045000Y041386D01*
Y041000D02*
Y041386D01*
X054475Y042025D02*
Y042025D01*
X054250Y042250D02*
X054475Y042025D01*
X055350Y041500D02*
X055778Y041072D01*
Y040709D02*
Y041072D01*
Y040709D02*
X055854Y040632D01*
X053450Y041500D02*
X055350D01*
X052050Y042050D02*
X052250Y042250D01*
Y042665D01*
X052050Y041500D02*
Y042050D01*
X052750Y041500D02*
Y041750D01*
X053250Y042250D01*
X049500Y040000D02*
Y043279D01*
X047354Y044852D02*
X047832Y044374D01*
X054250Y042250D02*
Y042646D01*
X048500Y044872D02*
X048998Y044374D01*
X050000Y046500D02*
X050096D01*
X050646Y045950D01*
Y045226D02*
Y045950D01*
X049415Y044031D02*
X049445Y044000D01*
X049500D01*
X042654Y040750D02*
X042809D01*
X043114Y041500D02*
X043388Y041774D01*
X042546Y044772D02*
X042719Y044598D01*
Y044558D02*
Y044598D01*
X042345Y044772D02*
X042546D01*
X041835Y046500D02*
X042709Y045626D01*
X042929D01*
X042834Y046225D02*
X043610Y045449D01*
X042805Y046225D02*
X042834D01*
X042929Y045626D02*
X043329Y045226D01*
X043388D01*
X053250Y042250D02*
Y042646D01*
X055854Y040500D02*
Y040632D01*
X044390Y045449D02*
Y045527D01*
X042493Y045180D02*
X042891D01*
X041388Y045138D02*
X041979D01*
X042905Y045165D02*
X042992D01*
X042891Y045180D02*
X042905Y045165D01*
X042336Y044575D02*
X042399Y044512D01*
X042263Y044575D02*
X042336D01*
X042088Y044750D02*
X042263Y044575D01*
X041750Y044750D02*
X042088D01*
X041979Y045138D02*
X042345Y044772D01*
X042779Y044969D02*
X042942Y044805D01*
X042426Y044969D02*
X042779D01*
X043038Y045212D02*
X043165Y045085D01*
X043038Y045212D02*
X043038D01*
X041000Y044750D02*
X041388Y045138D01*
X040000Y045000D02*
X040665Y044335D01*
X040500Y040250D02*
X041041D01*
X041750D02*
Y041000D01*
X043080Y043250D02*
X043165Y043165D01*
X042942Y043388D02*
X043080Y043250D01*
X043082D01*
X047000Y040500D02*
X047000Y040500D01*
X045726Y044112D02*
X045752Y044087D01*
X044612Y041774D02*
X044886Y041500D01*
X045949Y043110D02*
X046059Y043000D01*
X043165Y045003D02*
Y045085D01*
X049000Y041396D02*
X049000Y041396D01*
Y040500D02*
Y041396D01*
X048000Y040500D02*
X048000Y040500D01*
X048000Y040500D02*
Y041396D01*
X042942Y044781D02*
Y044805D01*
X042051Y044335D02*
X042274Y044112D01*
Y042888D02*
X042774Y043388D01*
X042942D01*
X043165Y042888D02*
Y043165D01*
X042719Y042442D02*
X043165Y042888D01*
X045281Y044558D02*
Y044558D01*
X044835Y044112D02*
X045281Y044558D01*
X044612Y044112D02*
X044835D01*
X042399Y044335D02*
X042497D01*
X041941Y043000D02*
X042051Y043110D01*
X041941Y044000D02*
X042051Y043890D01*
X040000Y045000D02*
X040003Y045003D01*
X050000Y040500D02*
Y041396D01*
X050000Y041396D02*
X050000Y041396D01*
X051000Y040500D02*
Y041396D01*
X051000Y041396D02*
X051000Y041396D01*
X052000Y040500D02*
X053146D01*
X053854Y040126D02*
X054772D01*
X055146Y040500D01*
X051000Y042104D02*
X051146D01*
X048000Y046500D02*
X048000Y046500D01*
X045500Y045668D02*
Y045750D01*
X040665Y044335D02*
X042051D01*
X040000Y044000D02*
X041941D01*
X040000Y043000D02*
X041941D01*
X044278Y044447D02*
X044612Y044112D01*
X048000Y046080D02*
Y046500D01*
Y046080D02*
X048500Y045580D01*
X048935Y042169D02*
X049000Y042104D01*
X040000Y040750D02*
X040500Y040250D01*
X040000Y040750D02*
Y042000D01*
X043513Y041551D02*
X043610D01*
X045500Y045750D02*
Y046665D01*
X045415Y046750D02*
X045500Y046665D01*
X052000Y046500D02*
X053146D01*
X051000D02*
X051122D01*
X052396Y045226D01*
X052250Y043373D02*
Y043956D01*
X051354Y044852D02*
X052250Y043956D01*
X053104Y044852D02*
X053250Y044706D01*
Y043354D02*
Y044706D01*
X046646Y045226D02*
Y046146D01*
X047000Y046500D01*
X049000D02*
X049500Y046000D01*
Y045580D02*
Y046000D01*
X044390Y045449D02*
X044616Y045675D01*
X044000Y046250D02*
X044362D01*
X044612Y046000D01*
Y045678D02*
Y046000D01*
X044000Y047000D02*
X044500D01*
X044612Y045226D02*
X044859Y045473D01*
Y046641D01*
X044500Y047000D02*
X044859Y046641D01*
X054736Y046872D02*
X055700D01*
X054700Y046908D02*
X054736Y046872D01*
X056700Y046908D02*
X057664D01*
X057700Y046872D01*
X054700Y044781D02*
Y045628D01*
X055500Y044781D02*
X055852D01*
X056700Y045628D01*
X058950Y043950D02*
Y043950D01*
X044612Y045678D02*
X044616Y045675D01*
X057500Y041500D02*
X058950Y042950D01*
X056500Y041500D02*
X058950Y043950D01*
X040250Y046000D02*
X041673D01*
X042493Y045180D01*
X041000Y045449D02*
X041946D01*
X042426Y044969D01*
X053750Y043854D02*
X054250Y043354D01*
X053750Y043854D02*
Y045896D01*
X053146Y046500D02*
X053750Y045896D01*
X043082Y043250D02*
X044278Y044447D01*
X041750Y041473D02*
X042719Y042442D01*
X041750Y041250D02*
Y041473D01*
Y041000D02*
Y041250D01*
X041832Y042000D02*
X042497Y042665D01*
X041165Y042000D02*
X041832D01*
X042500Y041500D02*
X043114D01*
X042809Y040750D02*
X043610Y041551D01*
D19*
X040000Y043000D02*
D03*
X040000Y044000D02*
D03*
X040000Y042000D02*
D03*
X058950Y040950D02*
D03*
X058950Y041950D02*
D03*
X058950Y042950D02*
D03*
X058950Y044950D02*
D03*
X058950Y043950D02*
D03*
D20*
X040000Y045000D02*
D03*
X058950Y045950D02*
D03*
D21*
X047000Y040500D02*
D03*
X048000D02*
D03*
X049000D02*
D03*
X050000D02*
D03*
X051000Y046500D02*
D03*
X050000D02*
D03*
X049000D02*
D03*
X048000D02*
D03*
X047000D02*
D03*
X052000D02*
D03*
X051000Y040500D02*
D03*
X052000D02*
D03*
X059000Y040000D02*
D03*
X040000Y047000D02*
D03*
Y040000D02*
D03*
X059000Y047000D02*
D03*
D22*
X044000D02*
D03*
Y046250D02*
D03*
D23*
X047249Y042499D02*
D03*
X047250Y043250D02*
D03*
X046525Y042874D02*
D03*
X046500Y042125D02*
D03*
X045500Y041500D02*
D03*
X048250Y044000D02*
D03*
X051500Y042750D02*
D03*
X050000D02*
D03*
X050818Y044250D02*
D03*
X045000Y041000D02*
D03*
X054475Y042025D02*
D03*
X053450Y041500D02*
D03*
X052050D02*
D03*
X052750D02*
D03*
X047250Y041740D02*
D03*
X049500Y044000D02*
D03*
X042719Y040000D02*
D03*
X042500Y041500D02*
D03*
X041165Y042000D02*
D03*
X042654Y040750D02*
D03*
X041835Y046500D02*
D03*
X042805Y046225D02*
D03*
X054000Y046500D02*
D03*
X041000Y045449D02*
D03*
X040250Y046000D02*
D03*
X041000Y044750D02*
D03*
X041750D02*
D03*
X045500Y045750D02*
D03*
X054700Y044781D02*
D03*
X055500D02*
D03*
X057500Y041500D02*
D03*
X056500D02*
D03*
X055750Y042370D02*
D03*
X049500Y040000D02*
D03*
M02*
