G04 Layer_Color=8388736*
%FSAX24Y24*%
%MOIN*%
G70*
G01*
G75*
%ADD31R,0.0846X0.0571*%
%ADD32R,0.0551X0.0315*%
%ADD33R,0.0551X0.0630*%
%ADD34R,0.0630X0.0551*%
%ADD35R,0.0591X0.0669*%
G04:AMPARAMS|DCode=36|XSize=29.5mil|YSize=72.8mil|CornerRadius=0mil|HoleSize=0mil|Usage=FLASHONLY|Rotation=225.000|XOffset=0mil|YOffset=0mil|HoleType=Round|Shape=Round|*
%AMOVALD36*
21,1,0.0433,0.0295,0.0000,0.0000,315.0*
1,1,0.0295,-0.0153,0.0153*
1,1,0.0295,0.0153,-0.0153*
%
%ADD36OVALD36*%

G04:AMPARAMS|DCode=37|XSize=29.5mil|YSize=72.8mil|CornerRadius=0mil|HoleSize=0mil|Usage=FLASHONLY|Rotation=315.000|XOffset=0mil|YOffset=0mil|HoleType=Round|Shape=Round|*
%AMOVALD37*
21,1,0.0433,0.0295,0.0000,0.0000,45.0*
1,1,0.0295,-0.0153,-0.0153*
1,1,0.0295,0.0153,0.0153*
%
%ADD37OVALD37*%

%ADD38R,0.0679X0.0479*%
%ADD39C,0.0779*%
%ADD40R,0.0779X0.0779*%
%ADD41C,0.0551*%
%ADD42C,0.0591*%
%ADD43C,0.0379*%
D31*
X057182Y043950D02*
D03*
X056218D02*
D03*
D32*
X053854Y040126D02*
D03*
Y040874D02*
D03*
X053146Y040500D02*
D03*
X053104Y044852D02*
D03*
Y045600D02*
D03*
X052396Y045226D02*
D03*
X051354Y044852D02*
D03*
Y045600D02*
D03*
X050646Y045226D02*
D03*
X047354Y044852D02*
D03*
Y045600D02*
D03*
X046646Y045226D02*
D03*
D33*
X055146Y040500D02*
D03*
X055854D02*
D03*
X043646Y040250D02*
D03*
X044354D02*
D03*
X046080Y040250D02*
D03*
X045372D02*
D03*
X041146D02*
D03*
X041854D02*
D03*
D34*
X053250Y043354D02*
D03*
Y042646D02*
D03*
X052250Y043373D02*
D03*
Y042665D02*
D03*
X049000Y042104D02*
D03*
Y041396D02*
D03*
X051000Y042104D02*
D03*
Y041396D02*
D03*
X049500Y044872D02*
D03*
Y045580D02*
D03*
X048000Y042104D02*
D03*
Y041396D02*
D03*
X050000Y042104D02*
D03*
Y041396D02*
D03*
X054250Y042646D02*
D03*
Y043354D02*
D03*
X048500Y044872D02*
D03*
Y045580D02*
D03*
X057700Y046164D02*
D03*
Y046872D02*
D03*
X055700Y046164D02*
D03*
Y046872D02*
D03*
D35*
X041165Y041250D02*
D03*
X041835D02*
D03*
X046085Y046750D02*
D03*
X045415D02*
D03*
D36*
X045949Y043110D02*
D03*
X045726Y042888D02*
D03*
X045503Y042665D02*
D03*
X045281Y042442D02*
D03*
X045058Y042219D02*
D03*
X044835Y041997D02*
D03*
X044612Y041774D02*
D03*
X044390Y041551D02*
D03*
X042051Y043890D02*
D03*
X042274Y044112D02*
D03*
X042497Y044335D02*
D03*
X042719Y044558D02*
D03*
X042942Y044781D02*
D03*
X043165Y045003D02*
D03*
X043388Y045226D02*
D03*
X043610Y045449D02*
D03*
D37*
Y041551D02*
D03*
X043388Y041774D02*
D03*
X043165Y041997D02*
D03*
X042942Y042219D02*
D03*
X042719Y042442D02*
D03*
X042497Y042665D02*
D03*
X042274Y042888D02*
D03*
X042051Y043110D02*
D03*
X044390Y045449D02*
D03*
X044612Y045226D02*
D03*
X044835Y045003D02*
D03*
X045058Y044781D02*
D03*
X045281Y044558D02*
D03*
X045503Y044335D02*
D03*
X045726Y044112D02*
D03*
X045949Y043890D02*
D03*
D38*
X056700Y046908D02*
D03*
Y045628D02*
D03*
X054700Y046908D02*
D03*
Y045628D02*
D03*
D39*
X040000Y043000D02*
D03*
X040000Y044000D02*
D03*
X040000Y042000D02*
D03*
X058950Y040950D02*
D03*
X058950Y041950D02*
D03*
X058950Y042950D02*
D03*
X058950Y044950D02*
D03*
X058950Y043950D02*
D03*
D40*
X040000Y045000D02*
D03*
X058950Y045950D02*
D03*
D41*
X047000Y040500D02*
D03*
X048000D02*
D03*
X049000D02*
D03*
X050000D02*
D03*
X051000Y046500D02*
D03*
X050000D02*
D03*
X049000D02*
D03*
X048000D02*
D03*
X047000D02*
D03*
X052000D02*
D03*
X051000Y040500D02*
D03*
X052000D02*
D03*
X059000Y040000D02*
D03*
X040000Y047000D02*
D03*
Y040000D02*
D03*
X059000Y047000D02*
D03*
D42*
X044000D02*
D03*
Y046250D02*
D03*
D43*
X047249Y042499D02*
D03*
X047250Y043250D02*
D03*
X046525Y042874D02*
D03*
X046500Y042125D02*
D03*
X045500Y041500D02*
D03*
X048250Y044000D02*
D03*
X051500Y042750D02*
D03*
X050000D02*
D03*
X050818Y044250D02*
D03*
X045000Y041000D02*
D03*
X054475Y042025D02*
D03*
X053450Y041500D02*
D03*
X052050D02*
D03*
X052750D02*
D03*
X047250Y041740D02*
D03*
X049500Y044000D02*
D03*
X042719Y040000D02*
D03*
X042500Y041500D02*
D03*
X041165Y042000D02*
D03*
X042654Y040750D02*
D03*
X041835Y046500D02*
D03*
X042805Y046225D02*
D03*
X054000Y046500D02*
D03*
X041000Y045449D02*
D03*
X040250Y046000D02*
D03*
X041000Y044750D02*
D03*
X041750D02*
D03*
X045500Y045750D02*
D03*
X054700Y044781D02*
D03*
X055500D02*
D03*
X057500Y041500D02*
D03*
X056500D02*
D03*
X055750Y042370D02*
D03*
X049500Y040000D02*
D03*
M02*
