M48
;Layer_Color=9474304
;FILE_FORMAT=2:4
INCH
;TYPE=PLATED
T1F00S00C0.0130
T2F00S00C0.0197
T3F00S00C0.0240
T4F00S00C0.0276
T5F00S00C0.0400
%
T01
X042719Y040000
X042654Y040750
X042500Y041500
X041165Y042000
X041000Y044750
Y045449
X040250Y046000
X041835Y046500
X042805Y046225
X041750Y044750
X045500Y045750
X046525Y042874
X046500Y042125
X045500Y041500
X045000Y041000
X047250Y041740
X047249Y042499
X047250Y043250
X048250Y044000
X049500
X050818Y044250
X051500Y042750
X050000
X049500Y040000
X052050Y041500
X052750
X053450
X054475Y042025
X055750Y042370
X056500Y041500
X057500
X055500Y044781
X054700
X054000Y046500
T02
X040000Y040000
X059000
Y047000
X040000
T03
X047000Y040500
X048000
X049000
X050000
X051000
X052000
Y046500
X051000
X050000
X049000
X048000
X047000
T04
X044000Y046250
Y047000
T05
X040000Y042000
X040000Y043000
X040000Y044000
X040000Y045000
X058950Y044950
X058950Y045950
X058950Y043950
X058950Y042950
X058950Y041950
X058950Y040950
M30
