G04 Layer_Color=65535*
%FSAX24Y24*%
%MOIN*%
G70*
G01*
G75*
%ADD24C,0.0098*%
%ADD25C,0.0236*%
%ADD26C,0.0079*%
%ADD27C,0.0080*%
%ADD28C,0.0010*%
%ADD29C,0.0100*%
%ADD30R,0.1000X0.0996*%
G36*
X056735Y046223D02*
X056855D01*
Y046173D01*
X056545D01*
Y046223D01*
X056665D01*
Y046363D01*
X056735D01*
Y046223D01*
D02*
G37*
G36*
X054735D02*
X054855D01*
Y046173D01*
X054545D01*
Y046223D01*
X054665D01*
Y046363D01*
X054735D01*
Y046223D01*
D02*
G37*
D24*
X053904Y039791D02*
G03*
X053904Y039791I-000049J000000D01*
G01*
X053154Y044517D02*
G03*
X053154Y044517I-000049J000000D01*
G01*
X051404D02*
G03*
X051404Y044517I-000049J000000D01*
G01*
X047404D02*
G03*
X047404Y044517I-000049J000000D01*
G01*
X046228Y043660D02*
G03*
X046228Y043660I-000049J000000D01*
G01*
D25*
X045204Y043500D02*
G03*
X045204Y043500I-000118J000000D01*
G01*
D26*
X057684Y043743D02*
Y044157D01*
X053224Y039909D02*
X053461D01*
X053224D02*
Y040224D01*
Y041091D02*
X053461D01*
X053224Y040776D02*
Y041091D01*
X055500Y040264D02*
Y040736D01*
X052474Y044635D02*
X052711D01*
X052474D02*
Y044950D01*
Y045817D02*
X052711D01*
X052474Y045502D02*
Y045817D01*
X053014Y043000D02*
X053486D01*
X050724Y044635D02*
X050961D01*
X050724D02*
Y044950D01*
Y045817D02*
X050961D01*
X050724Y045502D02*
Y045817D01*
X052014Y043019D02*
X052486D01*
X046724Y044635D02*
X046961D01*
X046724D02*
Y044950D01*
Y045817D02*
X046961D01*
X046724Y045502D02*
Y045817D01*
X044000Y040014D02*
Y040486D01*
X048764Y041750D02*
X049236D01*
X050764D02*
X051236D01*
X049264Y045226D02*
X049736D01*
X045726Y040014D02*
Y040486D01*
X047764Y041750D02*
X048236D01*
X049764D02*
X050236D01*
X054014Y043000D02*
X054486D01*
X048264Y045226D02*
X048736D01*
X041500Y040014D02*
Y040486D01*
X042358Y043500D02*
X044000Y045142D01*
X044000Y041858D02*
X045642Y043500D01*
X042358D02*
X044000Y041858D01*
X044000Y045142D02*
X045642Y043500D01*
X057464Y046518D02*
X057936D01*
X055464D02*
X055936D01*
D27*
X039500Y045500D02*
X040500Y045500D01*
X040500Y041500D01*
X039500Y042500D02*
X040500D01*
X039500Y041500D02*
X039500Y045500D01*
X039500Y041500D02*
X040500D01*
X039500D02*
X040500D01*
X039490D02*
X040490D01*
X039500Y043500D02*
X040500D01*
X039500Y044500D02*
X040500D01*
X039657Y047250D02*
X059350D01*
Y039760D02*
Y047250D01*
X039657Y039760D02*
X059350D01*
X039657D02*
Y047250D01*
X058450Y045450D02*
X059450D01*
X058450Y044450D02*
X059450D01*
X058450Y040450D02*
X059450D01*
X058450D02*
X059450D01*
X058450Y041450D02*
X059450D01*
X058450D02*
X059450D01*
X058450Y042450D02*
X059450D01*
X058450D02*
X059450D01*
X058450Y040450D02*
X058450Y046450D01*
X058450Y043450D02*
X059450D01*
X059450Y046450D02*
X059450Y040450D01*
X058450Y046450D02*
X059450Y046450D01*
X058450Y040450D02*
X059450D01*
D28*
X056665Y046363D02*
X056735D01*
X056855Y046173D02*
Y046223D01*
X056545Y046173D02*
X056855D01*
X056545D02*
Y046223D01*
X056735D02*
X056855D01*
X056545D02*
X056665D01*
X056735D02*
Y046363D01*
X056665Y046223D02*
Y046363D01*
X054665D02*
X054735D01*
X054855Y046173D02*
Y046223D01*
X054545Y046173D02*
X054855D01*
X054545D02*
Y046223D01*
X054735D02*
X054855D01*
X054545D02*
X054665D01*
X054735D02*
Y046363D01*
X054665Y046223D02*
Y046363D01*
D29*
X056900Y043374D02*
X056800Y043474D01*
X056600D01*
X056500Y043374D01*
Y042974D01*
X056600Y042874D01*
X056800D01*
X056900Y042974D01*
X057100Y042874D02*
X057300D01*
X057200D01*
Y043474D01*
X057100Y043374D01*
X041900Y042250D02*
X041800Y042350D01*
X041600D01*
X041500Y042250D01*
Y041850D01*
X041600Y041750D01*
X041800D01*
X041900Y041850D01*
X042500Y041750D02*
X042100D01*
X042500Y042150D01*
Y042250D01*
X042400Y042350D01*
X042200D01*
X042100Y042250D01*
X044650Y045750D02*
X044550Y045650D01*
X044350D01*
X044250Y045750D01*
Y046150D01*
X044350Y046250D01*
X044550D01*
X044650Y046150D01*
X044850Y045750D02*
X044950Y045650D01*
X045150D01*
X045250Y045750D01*
Y045850D01*
X045150Y045950D01*
X045050D01*
X045150D01*
X045250Y046050D01*
Y046150D01*
X045150Y046250D01*
X044950D01*
X044850Y046150D01*
X054859Y045105D02*
Y044505D01*
X055159D01*
X055259Y044605D01*
Y045005D01*
X055159Y045105D01*
X054859D01*
X055859Y045005D02*
X055759Y045105D01*
X055559D01*
X055459Y045005D01*
Y044905D01*
X055559Y044805D01*
X055759D01*
X055859Y044705D01*
Y044605D01*
X055759Y044505D01*
X055559D01*
X055459Y044605D01*
X056058Y044505D02*
X056258D01*
X056158D01*
Y045105D01*
X056058Y045005D01*
X056700Y045100D02*
Y044500D01*
X057000D01*
X057100Y044600D01*
Y045000D01*
X057000Y045100D01*
X056700D01*
X057700Y045000D02*
X057600Y045100D01*
X057400D01*
X057300Y045000D01*
Y044900D01*
X057400Y044800D01*
X057600D01*
X057700Y044700D01*
Y044600D01*
X057600Y044500D01*
X057400D01*
X057300Y044600D01*
X058299Y044500D02*
X057900D01*
X058299Y044900D01*
Y045000D01*
X058200Y045100D01*
X058000D01*
X057900Y045000D01*
X040250Y046850D02*
Y046250D01*
Y046550D01*
X040650D01*
Y046850D01*
Y046250D01*
X040850D02*
Y046850D01*
X041050Y046650D01*
X041250Y046850D01*
Y046250D01*
X041450D02*
X041650D01*
X041550D01*
Y046850D01*
X041450Y046750D01*
X047150Y043850D02*
Y044250D01*
X047050Y044350D01*
X046850D01*
X046750Y044250D01*
Y043850D01*
X046850Y043750D01*
X047050D01*
X046950Y043950D02*
X047150Y043750D01*
X047050D02*
X047150Y043850D01*
X047350Y043750D02*
X047550D01*
X047450D01*
Y044350D01*
X047350Y044250D01*
X051400Y046100D02*
Y046500D01*
X051300Y046600D01*
X051100D01*
X051000Y046500D01*
Y046100D01*
X051100Y046000D01*
X051300D01*
X051200Y046200D02*
X051400Y046000D01*
X051300D02*
X051400Y046100D01*
X052000Y046000D02*
X051600D01*
X052000Y046400D01*
Y046500D01*
X051900Y046600D01*
X051700D01*
X051600Y046500D01*
X052900Y046100D02*
Y046500D01*
X052800Y046600D01*
X052600D01*
X052500Y046500D01*
Y046100D01*
X052600Y046000D01*
X052800D01*
X052700Y046200D02*
X052900Y046000D01*
X052800D02*
X052900Y046100D01*
X053100Y046500D02*
X053200Y046600D01*
X053400D01*
X053500Y046500D01*
Y046400D01*
X053400Y046300D01*
X053300D01*
X053400D01*
X053500Y046200D01*
Y046100D01*
X053400Y046000D01*
X053200D01*
X053100Y046100D01*
X053850Y041600D02*
Y042000D01*
X053750Y042100D01*
X053550D01*
X053450Y042000D01*
Y041600D01*
X053550Y041500D01*
X053750D01*
X053650Y041700D02*
X053850Y041500D01*
X053750D02*
X053850Y041600D01*
X054350Y041500D02*
Y042100D01*
X054050Y041800D01*
X054450D01*
X054500Y045950D02*
Y046550D01*
X054800D01*
X054900Y046450D01*
Y046250D01*
X054800Y046150D01*
X054500D01*
X054700D02*
X054900Y045950D01*
X055100D02*
X055300D01*
X055200D01*
Y046550D01*
X055100Y046450D01*
X056250Y046000D02*
Y046600D01*
X056550D01*
X056650Y046500D01*
Y046300D01*
X056550Y046200D01*
X056250D01*
X056450D02*
X056650Y046000D01*
X057250D02*
X056850D01*
X057250Y046400D01*
Y046500D01*
X057150Y046600D01*
X056950D01*
X056850Y046500D01*
X039750Y040750D02*
Y041350D01*
X040050D01*
X040150Y041250D01*
Y041050D01*
X040050Y040950D01*
X039750D01*
X039950D02*
X040150Y040750D01*
X040350Y041250D02*
X040450Y041350D01*
X040650D01*
X040750Y041250D01*
Y041150D01*
X040650Y041050D01*
X040550D01*
X040650D01*
X040750Y040950D01*
Y040850D01*
X040650Y040750D01*
X040450D01*
X040350Y040850D01*
X048000Y043750D02*
Y044350D01*
X048300D01*
X048400Y044250D01*
Y044050D01*
X048300Y043950D01*
X048000D01*
X048200D02*
X048400Y043750D01*
X048900D02*
Y044350D01*
X048600Y044050D01*
X049000D01*
X054750Y042874D02*
Y043474D01*
X055050D01*
X055150Y043374D01*
Y043174D01*
X055050Y043074D01*
X054750D01*
X054950D02*
X055150Y042874D01*
X055750Y043474D02*
X055350D01*
Y043174D01*
X055550Y043274D01*
X055650D01*
X055750Y043174D01*
Y042974D01*
X055650Y042874D01*
X055450D01*
X055350Y042974D01*
X050250Y042500D02*
Y043100D01*
X050550D01*
X050650Y043000D01*
Y042800D01*
X050550Y042700D01*
X050250D01*
X050450D02*
X050650Y042500D01*
X051250Y043100D02*
X051050Y043000D01*
X050850Y042800D01*
Y042600D01*
X050950Y042500D01*
X051150D01*
X051250Y042600D01*
Y042700D01*
X051150Y042800D01*
X050850D01*
X046750Y040750D02*
Y041350D01*
X047050D01*
X047150Y041250D01*
Y041050D01*
X047050Y040950D01*
X046750D01*
X046950D02*
X047150Y040750D01*
X047350Y041350D02*
X047750D01*
Y041250D01*
X047350Y040850D01*
Y040750D01*
X045250D02*
Y041350D01*
X045550D01*
X045650Y041250D01*
Y041050D01*
X045550Y040950D01*
X045250D01*
X045450D02*
X045650Y040750D01*
X045850Y041250D02*
X045950Y041350D01*
X046150D01*
X046250Y041250D01*
Y041150D01*
X046150Y041050D01*
X046250Y040950D01*
Y040850D01*
X046150Y040750D01*
X045950D01*
X045850Y040850D01*
Y040950D01*
X045950Y041050D01*
X045850Y041150D01*
Y041250D01*
X045950Y041050D02*
X046150D01*
X049250Y043750D02*
Y044350D01*
X049550D01*
X049650Y044250D01*
Y044050D01*
X049550Y043950D01*
X049250D01*
X049450D02*
X049650Y043750D01*
X049850Y043850D02*
X049950Y043750D01*
X050150D01*
X050250Y043850D01*
Y044250D01*
X050150Y044350D01*
X049950D01*
X049850Y044250D01*
Y044150D01*
X049950Y044050D01*
X050250D01*
X051500Y040750D02*
Y041350D01*
X051800D01*
X051900Y041250D01*
Y041050D01*
X051800Y040950D01*
X051500D01*
X051700D02*
X051900Y040750D01*
X052100D02*
X052300D01*
X052200D01*
Y041350D01*
X052100Y041250D01*
X052600D02*
X052700Y041350D01*
X052900D01*
X053000Y041250D01*
Y040850D01*
X052900Y040750D01*
X052700D01*
X052600Y040850D01*
Y041250D01*
X048000Y042500D02*
Y043100D01*
X048300D01*
X048400Y043000D01*
Y042800D01*
X048300Y042700D01*
X048000D01*
X048200D02*
X048400Y042500D01*
X048600D02*
X048800D01*
X048700D01*
Y043100D01*
X048600Y043000D01*
X049100Y042500D02*
X049300D01*
X049200D01*
Y043100D01*
X049100Y043000D01*
X043250Y040750D02*
Y041350D01*
X043550D01*
X043650Y041250D01*
Y041050D01*
X043550Y040950D01*
X043250D01*
X043450D02*
X043650Y040750D01*
X043850D02*
X044050D01*
X043950D01*
Y041350D01*
X043850Y041250D01*
X044750Y040750D02*
X044350D01*
X044750Y041150D01*
Y041250D01*
X044650Y041350D01*
X044450D01*
X044350Y041250D01*
X051250Y043750D02*
Y044350D01*
X051550D01*
X051650Y044250D01*
Y044050D01*
X051550Y043950D01*
X051250D01*
X051450D02*
X051650Y043750D01*
X051850D02*
X052050D01*
X051950D01*
Y044350D01*
X051850Y044250D01*
X052350D02*
X052450Y044350D01*
X052650D01*
X052750Y044250D01*
Y044150D01*
X052650Y044050D01*
X052550D01*
X052650D01*
X052750Y043950D01*
Y043850D01*
X052650Y043750D01*
X052450D01*
X052350Y043850D01*
X053250Y043750D02*
Y044350D01*
X053550D01*
X053650Y044250D01*
Y044050D01*
X053550Y043950D01*
X053250D01*
X053450D02*
X053650Y043750D01*
X053850D02*
X054050D01*
X053950D01*
Y044350D01*
X053850Y044250D01*
X054650Y043750D02*
Y044350D01*
X054350Y044050D01*
X054750D01*
X054750Y041000D02*
Y041600D01*
X055050D01*
X055150Y041500D01*
Y041300D01*
X055050Y041200D01*
X054750D01*
X054950D02*
X055150Y041000D01*
X055350D02*
X055550D01*
X055450D01*
Y041600D01*
X055350Y041500D01*
X056250Y041600D02*
X055850D01*
Y041300D01*
X056050Y041400D01*
X056150D01*
X056250Y041300D01*
Y041100D01*
X056150Y041000D01*
X055950D01*
X055850Y041100D01*
X043576Y042924D02*
X043929Y042571D01*
X044071D01*
X044212Y042712D01*
Y042853D01*
X043859Y043207D01*
X044424Y042924D02*
X044566Y043066D01*
X044495Y042995D01*
X044071Y043419D01*
Y043278D01*
X056500Y040600D02*
Y040000D01*
Y040300D01*
X056900D01*
Y040600D01*
Y040000D01*
X057100D02*
Y040600D01*
X057300Y040400D01*
X057500Y040600D01*
Y040000D01*
X058099D02*
X057700D01*
X058099Y040400D01*
Y040500D01*
X058000Y040600D01*
X057800D01*
X057700Y040500D01*
D30*
X040000Y045002D02*
D03*
X058950Y045952D02*
D03*
M02*
